<svg width="88" height="44" viewBox="0 0 88 44" fill="none" xmlns="http://www.w3.org/2000/svg">
<path d="M56.71 15.519C56.7094 15.3367 56.7052 15.1554 56.697 14.975V4.68835L53.8532 7.53218C51.5257 4.6832 47.9849 2.86353 44.019 2.86353C39.8917 2.86353 36.2251 4.83355 33.9072 7.88444L38.5686 12.5949C39.0254 11.75 39.6744 11.0244 40.4569 10.4763C41.2707 9.84124 42.4237 9.32199 44.0188 9.32199C44.2115 9.32199 44.3602 9.3445 44.4695 9.38692C46.4458 9.54291 48.1589 10.6336 49.1675 12.2166L45.868 15.5162C50.0473 15.4998 54.7686 15.4901 56.7096 15.5183" fill="#1C3AA9"/>
<path d="M43.9445 2.86414C43.7623 2.86473 43.581 2.86898 43.4005 2.87712H33.1139L35.9577 5.72096C33.1087 8.04847 31.2891 11.5892 31.2891 15.5552C31.2891 19.6824 33.2591 23.3491 36.31 25.6669L41.0204 21.0055C40.1755 20.5487 39.4499 19.8997 38.9018 19.1173C38.2668 18.3035 37.7475 17.1504 37.7475 15.5553C37.7475 15.3626 37.77 15.2139 37.8125 15.1046C37.9684 13.1283 39.0591 11.4153 40.6421 10.4066L43.9417 13.7062C43.9253 9.52687 43.9156 4.80556 43.9438 2.8645" fill="#4285F4"/>
<path d="M31.2891 15.5547C31.2897 15.737 31.2939 15.9183 31.302 16.0987V26.3854L34.1459 23.5415C36.4734 26.3905 40.0142 28.2102 43.9801 28.2102C48.1074 28.2102 51.774 26.2401 54.0918 23.1893L49.4304 18.4788C48.9736 19.3237 48.3247 20.0493 47.5422 20.5974C46.7284 21.2325 45.5753 21.7517 43.9803 21.7517C43.7876 21.7517 43.6388 21.7292 43.5295 21.6868C41.5533 21.5308 39.8402 20.4401 38.8315 18.8571L42.1311 15.5575C37.9518 15.5739 33.2305 15.5836 31.2894 15.5554" fill="#ABABAB"/>
<path d="M27.2404 31.9175C26.7639 31.9175 26.3366 32.0079 25.9587 32.1887C25.5807 32.3653 25.2603 32.618 24.9973 32.9466C24.7385 33.2753 24.5392 33.6738 24.3996 34.1421C24.264 34.6064 24.1962 35.126 24.1962 35.7012V37.3589C24.1962 37.9381 24.264 38.4599 24.3996 38.9241C24.5392 39.3884 24.7364 39.7848 24.9912 40.1135C25.2459 40.4421 25.554 40.6948 25.9155 40.8714C26.277 41.0481 26.6837 41.1364 27.1357 41.1364C27.5999 41.1364 28.0066 41.0686 28.3558 40.9331C28.7091 40.7975 29.0049 40.6023 29.2432 40.3477C29.4815 40.0888 29.6643 39.7766 29.7917 39.4109C29.9231 39.0453 30.0012 38.6304 30.0258 38.1661H28.8858C28.857 38.5236 28.8077 38.8297 28.7379 39.0843C28.668 39.3349 28.5653 39.5424 28.4298 39.7067C28.2983 39.867 28.1258 39.9861 27.9121 40.0642C27.7026 40.1381 27.4438 40.1751 27.1357 40.1751C26.807 40.1751 26.5276 40.1032 26.2976 39.9594C26.0675 39.8115 25.8806 39.6102 25.7368 39.3555C25.5971 39.1007 25.4944 38.8029 25.4287 38.4619C25.3671 38.1209 25.3363 37.7533 25.3363 37.3588V35.6889C25.3363 35.2657 25.3732 34.8816 25.4472 34.5365C25.5252 34.1914 25.6423 33.8977 25.7984 33.6552C25.9545 33.4129 26.1517 33.2259 26.39 33.0945C26.6283 32.9589 26.9118 32.8911 27.2404 32.8911C27.5157 32.8911 27.7519 32.9322 27.9491 33.0144C28.1463 33.0924 28.3106 33.2157 28.4421 33.3841C28.5735 33.5484 28.6742 33.758 28.744 34.0127C28.8139 34.2674 28.8611 34.5714 28.8858 34.9247H30.0258C30.0053 34.4399 29.9293 34.0106 29.7978 33.6367C29.6664 33.2629 29.4835 32.9486 29.2494 32.6939C29.0152 32.4392 28.7297 32.2461 28.3928 32.1146C28.0601 31.9832 27.6759 31.9174 27.2404 31.9174L27.2404 31.9175ZM55.07 31.9175C54.5934 31.9175 54.1662 32.0079 53.7882 32.1887C53.4102 32.3653 53.0898 32.618 52.8269 32.9466C52.5681 33.2753 52.3688 33.6738 52.2291 34.1421C52.0935 34.6064 52.0257 35.126 52.0257 35.7012V37.3589C52.0257 37.9381 52.0935 38.4599 52.2291 38.9241C52.3688 39.3884 52.566 39.7848 52.8207 40.1135C53.0754 40.4421 53.3835 40.6948 53.745 40.8714C54.1066 41.0481 54.5133 41.1364 54.9652 41.1364C55.4294 41.1364 55.8361 41.0686 56.1854 40.9331C56.5387 40.7975 56.8345 40.6023 57.0728 40.3477C57.3111 40.0888 57.4939 39.7766 57.6212 39.4109C57.7527 39.0453 57.8308 38.6304 57.8554 38.1661H56.7154C56.6866 38.5236 56.6373 38.8297 56.5675 39.0843C56.4976 39.3349 56.3949 39.5424 56.2594 39.7067C56.1279 39.867 55.9554 39.9861 55.7417 40.0642C55.5322 40.1381 55.2733 40.1751 54.9653 40.1751C54.6366 40.1751 54.3572 40.1032 54.1272 39.9594C53.8971 39.8115 53.7102 39.6102 53.5664 39.3555C53.4267 39.1007 53.324 38.8029 53.2583 38.4619C53.1967 38.1209 53.1659 37.7532 53.1659 37.3588V35.6888C53.1659 35.2657 53.2028 34.8816 53.2768 34.5365C53.3548 34.1914 53.4719 33.8976 53.628 33.6552C53.7841 33.4128 53.9813 33.2259 54.2196 33.0945C54.4579 32.9589 54.7414 32.8911 55.07 32.8911C55.3452 32.8911 55.5815 32.9322 55.7787 33.0144C55.9758 33.0924 56.1402 33.2157 56.2716 33.3841C56.4031 33.5484 56.5038 33.7579 56.5736 34.0127C56.6434 34.2674 56.6907 34.5714 56.7153 34.9247H57.8553C57.8348 34.4399 57.7588 34.0106 57.6273 33.6367C57.4959 33.2629 57.3131 32.9486 57.0789 32.6939C56.8447 32.4391 56.5592 32.2461 56.2223 32.1146C55.8896 31.9831 55.5055 31.9174 55.07 31.9174L55.07 31.9175ZM33.736 32.0408L30.8458 41.0131H32.0043L32.7007 38.6714H35.7326L36.4412 41.0131H37.5998L34.7035 32.0408H33.736ZM38.8198 32.0408V41.0131H39.9475V37.5006H41.6791C42.1105 37.5006 42.4925 37.441 42.8253 37.3218C43.1581 37.1986 43.4374 37.0219 43.6634 36.7919C43.8935 36.5618 44.066 36.2784 44.181 35.9415C44.3001 35.6005 44.3597 35.2143 44.3597 34.7829C44.3597 34.3844 44.3001 34.0188 44.181 33.686C44.066 33.3491 43.8955 33.0595 43.6695 32.8171C43.4436 32.5706 43.1622 32.3796 42.8253 32.244C42.4925 32.1085 42.1105 32.0407 41.6791 32.0407L38.8198 32.0408ZM45.2224 32.0408V33.0144H47.5765V41.0131H48.7042V33.0144H51.0644V32.0408H45.2224ZM59.3775 32.0408V41.0131H60.5052V36.8658H64.1163V41.0131H65.2502V32.0408H64.1163V35.8984H60.5052V32.0408H59.3775ZM69.5269 32.0408L66.6367 41.0131H67.7953L68.4916 38.6714H71.5235L72.2322 41.0131H73.3907L70.4944 32.0408H69.5269ZM39.9474 33.0144H41.679C41.9543 33.0144 42.1884 33.0637 42.3815 33.1623C42.5787 33.2609 42.7389 33.3924 42.8622 33.5567C42.9895 33.721 43.082 33.9121 43.1395 34.1298C43.2011 34.3434 43.2319 34.5653 43.2319 34.7954C43.2319 35.0501 43.2011 35.2842 43.1395 35.4979C43.082 35.7074 42.9895 35.8902 42.8622 36.0463C42.7389 36.1983 42.5787 36.3175 42.3815 36.4037C42.1884 36.49 41.9542 36.5331 41.679 36.5331H39.9474V33.0144ZM34.2165 33.6184L35.4428 37.6978H32.9964L34.2165 33.6184ZM70.0074 33.6184L71.2337 37.6978H68.7873L70.0074 33.6184ZM16.9254 34.2223C16.642 34.2223 16.3975 34.2942 16.1921 34.438C15.9908 34.5818 15.8223 34.7769 15.6868 35.0234L15.6683 34.3455H14.6084V41.0132H15.6991V36.2433C15.8019 35.9599 15.9477 35.736 16.1367 35.5716C16.3298 35.4073 16.5742 35.3251 16.87 35.3251C16.9645 35.3251 17.0487 35.3293 17.1227 35.3375C17.1966 35.3416 17.2767 35.3518 17.363 35.3683L17.3569 34.3083C17.3405 34.3001 17.3138 34.2919 17.2768 34.2837C17.2439 34.2713 17.207 34.261 17.1659 34.2529C17.1248 34.2446 17.0817 34.2384 17.0365 34.2343C16.9954 34.2261 16.9584 34.222 16.9255 34.222L16.9254 34.2223ZM20.592 34.2223C20.2757 34.2223 19.9696 34.2777 19.6739 34.3887C19.3781 34.4996 19.1151 34.6824 18.8851 34.9371C18.6591 35.1877 18.4763 35.5164 18.3366 35.9231C18.197 36.3257 18.1271 36.8207 18.1271 37.4082V38.1601C18.1271 38.6695 18.1867 39.1111 18.3058 39.485C18.425 39.8588 18.5955 40.169 18.8173 40.4155C19.0432 40.6579 19.3164 40.8387 19.6369 40.9578C19.9573 41.0769 20.3168 41.1365 20.7153 41.1365C21.0029 41.1365 21.2597 41.1077 21.4856 41.0502C21.7157 40.9927 21.919 40.9188 22.0957 40.8284C22.2724 40.7339 22.4244 40.6271 22.5517 40.508C22.6791 40.3888 22.7879 40.2656 22.8783 40.1382L22.3114 39.448C22.221 39.5589 22.1245 39.6617 22.0218 39.7561C21.9191 39.8465 21.8061 39.9266 21.6828 39.9965C21.5596 40.0622 21.424 40.1136 21.2761 40.1505C21.1282 40.1875 20.9618 40.206 20.777 40.206C20.2717 40.206 19.8834 40.0437 19.6123 39.7192C19.3452 39.3946 19.2117 38.8749 19.2117 38.1601V38.006H22.9338V37.3713C22.9338 36.8619 22.8907 36.412 22.8044 36.0217C22.7181 35.6314 22.5805 35.3028 22.3915 35.0357C22.2025 34.7687 21.9601 34.5674 21.6643 34.4318C21.3685 34.2921 21.0111 34.2223 20.5921 34.2223L20.592 34.2223ZM20.592 35.159C20.8303 35.159 21.0275 35.2021 21.1837 35.2884C21.3398 35.3747 21.463 35.4959 21.5534 35.652C21.6479 35.8081 21.7157 35.995 21.7568 36.2127C21.8019 36.4264 21.8307 36.6626 21.843 36.9214V37.0693H19.2179C19.2343 36.6954 19.2795 36.3853 19.3534 36.1388C19.4274 35.8922 19.5239 35.6971 19.6431 35.5534C19.7663 35.4055 19.908 35.3028 20.0683 35.2452C20.2285 35.1877 20.4031 35.159 20.5921 35.159L20.592 35.159Z" fill="#A6A6A6"/>
</svg>
