<svg width="163" height="26" viewBox="0 0 163 26" fill="none" xmlns="http://www.w3.org/2000/svg">
<path d="M11.0537 25.9355C9.15332 25.9082 7.4375 25.4434 5.90625 24.541C4.375 23.6387 3.1582 22.4219 2.25586 20.8906C1.35352 19.3594 0.888672 17.6436 0.861328 15.7432V13.959L0 10.6777L0.0820312 10.6162C0.423828 10.3701 0.717773 9.83691 0.963867 9.0166L0.984375 8.99609C1.03906 8.58594 1.12793 8.17578 1.25098 7.76562C1.66113 6.33008 2.33789 5.05859 3.28125 3.95117C4.22461 2.83008 5.36621 1.94824 6.70605 1.30566C8.0459 0.663086 9.49512 0.341797 11.0537 0.341797C12.6123 0.341797 14.0615 0.669922 15.4014 1.32617C16.7549 1.96875 17.9033 2.85059 18.8467 3.97168C19.79 5.09277 20.4668 6.37793 20.877 7.82715V7.84766C20.877 7.875 20.8701 7.90234 20.8564 7.92969C20.8428 7.94336 19.1338 7.9502 15.7295 7.9502C15.6748 7.9502 15.6406 7.92285 15.627 7.86816C15.2988 6.89746 14.7246 6.11133 13.9043 5.50977C13.084 4.89453 12.1475 4.58691 11.0947 4.58691C10.2061 4.58691 9.39941 4.80566 8.6748 5.24316C7.9502 5.68066 7.37598 6.26172 6.95215 6.98633C6.52832 7.69727 6.31641 8.49707 6.31641 9.38574V15.9893C6.31641 16.8779 6.52832 17.6846 6.95215 18.4092C7.37598 19.1201 7.9502 19.6943 8.6748 20.1318C9.39941 20.5557 10.2061 20.7676 11.0947 20.7676C11.9697 20.7676 12.7695 20.6309 13.4941 20.3574C14.2188 20.0703 14.793 19.6396 15.2168 19.0654C15.6406 18.4912 15.8594 17.7666 15.873 16.8916V16.6455C15.873 16.5635 15.9072 16.5225 15.9756 16.5225H21.1025C21.1709 16.5225 21.2051 16.5635 21.2051 16.6455C21.0273 18.3955 20.4736 19.9746 19.5439 21.3828C18.6279 22.7773 17.4316 23.8848 15.9551 24.7051C14.4785 25.5117 12.8447 25.9219 11.0537 25.9355ZM45.7029 25.5254H41.2117C41.1843 25.5254 41.1638 25.5049 41.1502 25.4639C40.617 24.6299 39.1677 22.3535 36.8025 18.6348C36.4334 18.0879 35.948 17.8145 35.3464 17.8145C34.7859 17.8145 34.3211 18.0605 33.9519 18.5527C33.7468 18.8535 33.6375 19.0176 33.6238 19.0449C33.6101 19.0723 33.6033 19.4756 33.6033 20.2549C33.6033 21.0479 33.6101 21.4512 33.6238 21.4648C33.6375 21.4785 33.658 21.4854 33.6853 21.4854C33.7127 21.4854 33.7332 21.499 33.7468 21.5264C33.7605 21.54 33.7673 22.8252 33.7673 25.3818C33.7673 25.4775 33.7263 25.5254 33.6443 25.5254C30.4861 25.5254 28.8933 25.5117 28.866 25.4844C28.8386 25.457 28.825 24.1582 28.825 21.5879C28.825 21.5195 28.8523 21.4854 28.907 21.4854C28.9343 21.4854 28.9548 21.4785 28.9685 21.4648C28.9822 21.4512 28.989 19.5371 28.989 15.7227L28.2712 12.9541L28.3328 12.8926C28.4832 12.7969 28.6199 12.5986 28.7429 12.2979C28.907 11.874 28.989 11.2998 28.989 10.5752V7.90918C28.989 7.84082 28.9617 7.80664 28.907 7.80664C28.8523 7.80664 28.825 7.7793 28.825 7.72461C28.825 5.67383 28.8386 4.63477 28.866 4.60742C28.8933 4.58008 32.1267 4.56641 38.5662 4.56641C39.7966 4.56641 40.8972 4.87402 41.8679 5.48926C42.8523 6.09082 43.5974 6.89746 44.1033 7.90918C44.5271 8.74316 44.739 9.65918 44.739 10.6572C44.739 10.8623 44.7322 11.0742 44.7185 11.293C44.5408 12.6875 44.0281 13.8496 43.1804 14.7793C42.3464 15.6953 41.3894 16.29 40.3093 16.5635C40.2546 16.5908 40.2273 16.6387 40.2273 16.707C40.2273 16.7344 41.2185 18.3203 43.2009 21.4648C43.2146 21.4785 43.2625 21.4854 43.3445 21.4854C43.3855 21.4854 43.8093 22.1279 44.616 23.4131C45.4226 24.6982 45.8259 25.3545 45.8259 25.3818C45.8259 25.4775 45.7849 25.5254 45.7029 25.5254ZM33.7263 14.9844L33.8084 14.9639C34.4646 14.5674 35.2644 14.2324 36.2078 13.959C37.1921 13.6855 38.1765 13.5488 39.1609 13.5488C39.8035 13.3711 40.3298 13.0293 40.74 12.5234C41.1502 12.0176 41.3621 11.416 41.3757 10.7188C41.3757 9.91211 41.0886 9.22852 40.5144 8.66797C39.9539 8.09375 39.2703 7.80664 38.4636 7.80664H33.7263C33.699 7.82031 33.6716 7.84082 33.6443 7.86816C33.617 7.88184 33.6033 10.2061 33.6033 14.8408C33.6033 14.9365 33.6443 14.9844 33.7263 14.9844ZM70.0982 25.5254H65.4224C65.3814 25.5254 65.3404 25.4912 65.2993 25.4229L63.9048 21.5469C63.9048 21.5059 63.9185 21.4854 63.9458 21.4854C63.9868 21.4854 64.0073 21.4717 64.0073 21.4443V21.4238C63.7066 20.9316 63.3169 20.4736 62.8384 20.0498C62.3599 19.626 61.7788 19.2773 61.0952 19.0039C60.4116 18.7168 59.605 18.5732 58.6753 18.5732C57.7866 18.5732 57.3355 18.6074 57.3218 18.6758C56.6655 20.5078 56.3374 21.4307 56.3374 21.4443C56.3374 21.4717 56.3511 21.4854 56.3784 21.4854C56.4058 21.4854 56.4263 21.499 56.44 21.5264C56.4536 21.54 56.4605 21.5537 56.4605 21.5674L55.0659 25.4229C55.0386 25.4912 54.9976 25.5254 54.9429 25.5254H51.9898C51.9077 25.5254 51.8667 25.4775 51.8667 25.3818C51.8667 25.3682 52.3179 24.0898 53.2202 21.5469C53.2339 21.5059 53.2681 21.4854 53.3228 21.4854C53.3911 21.4854 53.4321 21.4717 53.4458 21.4443L54.2046 19.3115L54.4507 16.4609L54.5737 16.4404C54.6421 16.4131 54.7378 16.3516 54.8609 16.2559C55.189 16.0098 55.4898 15.5791 55.7632 14.9639L59.4751 4.64844C59.5025 4.59375 59.5435 4.56641 59.5982 4.56641H62.4898C62.5445 4.56641 62.5855 4.59375 62.6128 4.64844L68.6421 21.4443C68.6695 21.4717 68.7036 21.4854 68.7446 21.4854C68.7993 21.4854 68.8404 21.5059 68.8677 21.5469L70.2212 25.3818C70.2212 25.4775 70.1802 25.5254 70.0982 25.5254ZM62.2847 17.0352C62.3667 17.0352 62.4077 16.9941 62.4077 16.9121C62.4077 16.8984 61.7105 14.9434 60.3159 11.0469C60.2749 10.9922 60.2339 10.9648 60.1929 10.9648C60.1382 10.9648 60.0972 10.9922 60.0698 11.0469L58.1626 16.3174C58.1626 16.4131 58.2105 16.4609 58.3062 16.4609L58.6548 16.4404C59.8443 16.4404 61.0337 16.6318 62.2232 17.0146L62.2847 17.0352ZM82.6809 25.5254C79.5227 25.5254 77.93 25.5117 77.9026 25.4844C77.8753 25.457 77.8616 24.1582 77.8616 21.5879C77.8616 21.5195 77.8889 21.4854 77.9436 21.4854C77.971 21.4854 77.9915 21.4785 78.0052 21.4648C78.0188 21.4512 78.0257 19.5371 78.0257 15.7227L77.3079 12.9541L77.3694 12.8926C77.5061 12.8105 77.6429 12.6123 77.7796 12.2979C77.9436 11.9014 78.0257 11.334 78.0257 10.5957V7.90918C78.0257 7.84082 78.0052 7.80664 77.9641 7.80664C77.9231 7.80664 77.8958 7.7998 77.8821 7.78613C77.8684 7.77246 77.8616 6.74023 77.8616 4.68945C77.8616 4.60742 77.9095 4.56641 78.0052 4.56641C87.0423 4.56641 91.5745 4.58008 91.6018 4.60742C91.6292 4.63477 91.6429 5.66016 91.6429 7.68359C91.6429 7.76562 91.595 7.80664 91.4993 7.80664C85.6477 7.80664 82.7083 7.82031 82.6809 7.84766C82.6536 7.875 82.6399 9.85059 82.6399 13.7744C82.6399 13.8701 82.6809 13.918 82.763 13.918C82.7903 13.918 82.8177 13.9111 82.845 13.8975C84.2259 12.9814 85.7503 12.4893 87.4182 12.4209C87.8968 12.3936 88.3206 12.3799 88.6897 12.3799L90.2688 12.4004C90.3645 12.4004 90.4124 12.4482 90.4124 12.5439C90.4124 13.9111 90.3987 14.6084 90.3714 14.6357C90.344 14.6631 90.0159 14.6768 89.387 14.6768C88.4573 14.6768 87.6438 14.8066 86.9466 15.0664C85.6751 15.5312 84.6634 16.2832 83.9114 17.3223C83.3645 18.0742 82.9749 18.833 82.7425 19.5986L82.6399 19.9883V20.6855C82.6399 21.1914 82.6468 21.4512 82.6604 21.4648C82.6741 21.4785 82.6946 21.4854 82.722 21.4854C82.7493 21.4854 82.7698 21.499 82.7835 21.5264C82.7971 21.54 82.804 22.8252 82.804 25.3818C82.804 25.4775 82.763 25.5254 82.6809 25.5254ZM109.065 25.5049H104.39C104.294 25.5049 104.246 25.4639 104.246 25.3818V21.5879C104.246 21.5195 104.28 21.4854 104.349 21.4854C104.362 21.4854 104.376 21.4785 104.39 21.4648C104.417 21.4512 104.431 20.4873 104.431 18.5732V15.7227L103.692 12.9541L103.754 12.8926C103.904 12.7969 104.041 12.5986 104.164 12.2979C104.342 11.874 104.431 11.2998 104.431 10.5752C104.431 8.78418 104.417 7.875 104.39 7.84766C104.362 7.82031 103.59 7.80664 102.072 7.80664C102.004 7.80664 101.97 7.84082 101.97 7.90918C101.97 7.96387 101.942 7.99121 101.888 7.99121C99.837 7.99121 98.7979 7.97754 98.7705 7.9502C98.7432 7.92285 98.7295 6.83594 98.7295 4.68945C98.7295 4.60742 98.7705 4.56641 98.8526 4.56641C109.394 4.56641 114.671 4.58008 114.685 4.60742C114.712 4.63477 114.726 5.70117 114.726 7.80664C114.726 7.875 114.712 7.92285 114.685 7.9502C114.671 7.97754 113.632 7.99121 111.567 7.99121C111.513 7.99121 111.485 7.96387 111.485 7.90918C111.485 7.84082 111.458 7.80664 111.403 7.80664C109.872 7.80664 109.093 7.82031 109.065 7.84766C109.038 7.875 109.024 12.3936 109.024 21.4033C109.024 21.458 109.052 21.4854 109.106 21.4854C109.175 21.4854 109.209 21.5195 109.209 21.5879V25.3818C109.209 25.4639 109.161 25.5049 109.065 25.5049ZM130.097 25.8535H128.129C126.707 25.8398 125.422 25.4639 124.273 24.7256C123.125 23.9873 122.209 23.0166 121.525 21.8135C120.855 20.6104 120.507 19.2979 120.479 17.876V15.7432L119.741 12.9541C119.782 12.9541 119.871 12.8789 120.008 12.7285C120.213 12.4961 120.39 12.1406 120.541 11.6621L120.561 11.6416C120.753 9.9873 121.265 8.61328 122.099 7.51953C122.947 6.41211 123.979 5.58496 125.196 5.03809C126.413 4.49121 127.698 4.21777 129.052 4.21777C130.528 4.21777 131.916 4.53906 133.215 5.18164C134.527 5.81055 135.6 6.76758 136.434 8.05273C137.268 9.32422 137.699 10.917 137.726 12.8311V17.876C137.713 19.2979 137.364 20.6104 136.68 21.8135C136.011 23.0166 135.101 23.9873 133.953 24.7256C132.804 25.4639 131.519 25.8398 130.097 25.8535ZM129.318 21.4854C130.371 21.4854 131.266 21.1162 132.005 20.3779C132.757 19.626 133.133 18.7236 133.133 17.6709V15.7227L132.394 12.9541L132.517 12.8516C132.599 12.7832 132.695 12.6738 132.804 12.5234C132.928 12.3594 133.037 12.1406 133.133 11.8672C133.133 11.1152 132.948 10.4385 132.579 9.83691C132.223 9.22168 131.745 8.73633 131.143 8.38086C130.542 8.01172 129.865 7.82031 129.113 7.80664C128.361 7.82031 127.684 8.01172 127.083 8.38086C126.481 8.73633 125.996 9.22168 125.627 9.83691C125.271 10.4385 125.094 11.1152 125.094 11.8672V17.6709C125.094 18.7236 125.463 19.626 126.201 20.3779C126.953 21.1162 127.855 21.4854 128.908 21.4854H129.318ZM162.245 25.5254H157.753C157.726 25.5254 157.706 25.5049 157.692 25.4639C157.159 24.6299 155.71 22.3535 153.344 18.6348C152.975 18.0879 152.49 17.8145 151.888 17.8145C151.328 17.8145 150.863 18.0605 150.494 18.5527C150.289 18.8535 150.179 19.0176 150.166 19.0449C150.152 19.0723 150.145 19.4756 150.145 20.2549C150.145 21.0479 150.152 21.4512 150.166 21.4648C150.179 21.4785 150.2 21.4854 150.227 21.4854C150.254 21.4854 150.275 21.499 150.289 21.5264C150.302 21.54 150.309 22.8252 150.309 25.3818C150.309 25.4775 150.268 25.5254 150.186 25.5254C147.028 25.5254 145.435 25.5117 145.408 25.4844C145.38 25.457 145.367 24.1582 145.367 21.5879C145.367 21.5195 145.394 21.4854 145.449 21.4854C145.476 21.4854 145.497 21.4785 145.51 21.4648C145.524 21.4512 145.531 19.5371 145.531 15.7227L144.813 12.9541L144.875 12.8926C145.025 12.7969 145.162 12.5986 145.285 12.2979C145.449 11.874 145.531 11.2998 145.531 10.5752V7.90918C145.531 7.84082 145.503 7.80664 145.449 7.80664C145.394 7.80664 145.367 7.7793 145.367 7.72461C145.367 5.67383 145.38 4.63477 145.408 4.60742C145.435 4.58008 148.669 4.56641 155.108 4.56641C156.338 4.56641 157.439 4.87402 158.41 5.48926C159.394 6.09082 160.139 6.89746 160.645 7.90918C161.069 8.74316 161.281 9.65918 161.281 10.6572C161.281 10.8623 161.274 11.0742 161.26 11.293C161.083 12.6875 160.57 13.8496 159.722 14.7793C158.888 15.6953 157.931 16.29 156.851 16.5635C156.796 16.5908 156.769 16.6387 156.769 16.707C156.769 16.7344 157.76 18.3203 159.743 21.4648C159.756 21.4785 159.804 21.4854 159.886 21.4854C159.927 21.4854 160.351 22.1279 161.158 23.4131C161.964 24.6982 162.368 25.3545 162.368 25.3818C162.368 25.4775 162.327 25.5254 162.245 25.5254ZM150.268 14.9844L150.35 14.9639C151.006 14.5674 151.806 14.2324 152.75 13.959C153.734 13.6855 154.718 13.5488 155.703 13.5488C156.345 13.3711 156.872 13.0293 157.282 12.5234C157.692 12.0176 157.904 11.416 157.918 10.7188C157.918 9.91211 157.63 9.22852 157.056 8.66797C156.496 8.09375 155.812 7.80664 155.005 7.80664H150.268C150.241 7.82031 150.213 7.84082 150.186 7.86816C150.159 7.88184 150.145 10.2061 150.145 14.8408C150.145 14.9365 150.186 14.9844 150.268 14.9844Z" fill="url(#paint0_linear_95_85910)"/>
<defs>
<linearGradient id="paint0_linear_95_85910" x1="105" y1="0.671233" x2="105" y2="41.6575" gradientUnits="userSpaceOnUse">
<stop stop-color="#C15742"/>
<stop offset="1" stop-color="#B18056"/>
</linearGradient>
</defs>
</svg>
