<svg width="15" height="15" viewBox="0 0 15 15" fill="none" xmlns="http://www.w3.org/2000/svg">
<g clip-path="url(#clip0_95_155925)">
<path d="M6.56265 0.000610352C2.9441 0.000610352 0.000518686 2.39766 0.000518686 5.34406C0.000518686 6.83647 0.750476 8.23608 2.07415 9.2429C1.63636 9.9263 1.07015 10.6181 0.355811 10.7944C0.129886 10.8506 -0.0210426 11.0644 0.00239358 11.2959C0.0258298 11.5284 0.216131 11.7074 0.449556 11.7178C0.459868 11.7178 0.500178 11.7196 0.567674 11.7196C1.05233 11.7196 2.92348 11.6418 5.0468 10.5403C5.53333 10.6388 6.04236 10.6875 6.56265 10.6875C10.1803 10.6875 13.1248 8.29045 13.1248 5.34406C13.1248 2.39766 10.1803 0.000610352 6.56265 0.000610352Z" fill="#F05D35"/>
<path d="M14.6432 14.0406C14.046 13.8934 13.5942 13.4566 13.2782 13.0235C14.3779 12.162 14.9994 10.9771 14.9994 9.71431C14.9994 8.65687 14.555 7.68474 13.8173 6.90759C12.9839 9.61588 10.0525 11.6248 6.56238 11.6248C6.09647 11.6248 5.63618 11.5892 5.18902 11.5189C4.92278 11.6473 4.66217 11.7608 4.40625 11.862C5.35213 13.315 7.22328 14.3078 9.37472 14.3078C9.81438 14.3078 10.2409 14.2675 10.6459 14.1887C11.9911 14.874 13.2183 15.0006 13.9401 14.9996C14.3357 14.9996 14.5794 14.9621 14.6066 14.9574C14.826 14.9218 14.99 14.7362 14.9994 14.514C15.0078 14.2919 14.8597 14.0931 14.6432 14.0406Z" fill="#F05D35"/>
</g>
<defs>
<clipPath id="clip0_95_155925">
<rect width="15" height="15" fill="white"/>
</clipPath>
</defs>
</svg>
